<?xml version="1.0" encoding="UTF-8" standalone="no"?>
<!DOCTYPE svg PUBLIC "-//W3C//DTD SVG 1.1//EN" "http://www.w3.org/Graphics/SVG/1.1/DTD/svg11.dtd">
<svg width="100%" height="100%" viewBox="0 0 1440 1440" version="1.1" xmlns="http://www.w3.org/2000/svg" xmlns:xlink="http://www.w3.org/1999/xlink" xml:space="preserve" xmlns:serif="http://www.serif.com/" style="fill-rule:evenodd;clip-rule:evenodd;stroke-linejoin:round;stroke-miterlimit:2;">
    <g id="الشعار" transform="matrix(2.64245,0,0,2.64245,-1156.07,-1103.51)">
        <path d="M738,835.817L850.283,771.316L906.011,803.329L710.082,916.323L513.934,803.203L513.934,576.962L710.082,463.842L905.685,576.649L849.772,608.768L738,544.561L738,835.817ZM636,672L625.996,672L625.996,682L636,682L636,718L635.996,718L635.996,708L625.996,708L625.996,718L615.996,718L615.996,708L605.996,708L605.996,718L569.254,718L569.254,771.043L683,836.385L683,543.992L569.254,609.334L569.254,663L606.031,663L606.031,672L616.03,672L616.03,663L636,663L636,672ZM666,708L656,708L656,718L666,718L666,708ZM646,708L636,708L636,718L646,718L646,708ZM656,690L646,690L646,700L656,700L656,690ZM625.996,690L615.996,690L615.996,700L625.996,700L625.996,690ZM608.031,680L598.031,680L598.031,690L608.031,690L608.031,680ZM646,672L636,672L636,682L646,682L646,672ZM656,662L646,662L646,672L656,672L656,662Z" style="fill:white;"/>
    </g>
</svg>
