<svg id="Layer_1" data-name="Layer 1" xmlns="http://www.w3.org/2000/svg" xmlns:xlink="http://www.w3.org/1999/xlink" viewBox="0 0 777.03 896.74"><defs><style>.cls-1{fill-rule:evenodd;fill:url(#linear-gradient);}</style><linearGradient id="linear-gradient" x1="538.83" y1="527.7" x2="540.53" y2="1393.02" gradientUnits="userSpaceOnUse"><stop offset="0" stop-color="#f42407"/><stop offset="1" stop-color="#fade31"/></linearGradient></defs><title>FTC Logo Orange</title><path class="cls-1" d="M595.54,1248.82,818.07,1121l110.44,63.45-388.3,223.93L151.48,1184.19V735.81L540.21,511.63,927.87,735.19,817.06,798.85,595.54,671.6ZM393.4,924.16H373.57V944H393.4v71.35h0V995.51H373.57v19.82H353.75V995.51H333.93v19.82H261.12v105.12L486.54,1250V670.47L261.12,800V906.33H334v17.83h19.82V906.33H393.4Zm59.45,71.35H433v19.82h19.82Zm-39.64,0H393.4v19.82h19.81ZM433,959.84H413.21v19.81H433Zm-59.46,0H353.75v19.81h19.82ZM338,940H318.15v19.82H338Zm75.24-15.86H393.4V944h19.81ZM433,904.34H413.21v19.82H433Z" transform="translate(-151.48 -511.63)"/></svg>